<svg width="25" height="24" viewBox="0 0 25 24" fill="none" xmlns="http://www.w3.org/2000/svg">
<path d="M2.5 7.8501C2.5 6.0001 3.49 5.8501 4.72 5.8501H20.28C21.51 5.8501 22.5 6.0001 22.5 7.8501C22.5 10.0001 21.51 9.8501 20.28 9.8501H4.72C3.49 9.8501 2.5 10.0001 2.5 7.8501Z" stroke="#32383E" stroke-width="1.5"/>
<g opacity="0.4">
<path d="M9.30945 2L5.68945 5.63" stroke="#32383E" stroke-width="1.5" stroke-miterlimit="10" stroke-linecap="round" stroke-linejoin="round"/>
<path d="M15.6895 2L19.3095 5.63" stroke="#32383E" stroke-width="1.5" stroke-miterlimit="10" stroke-linecap="round" stroke-linejoin="round"/>
<path d="M10.2598 14V17.55" stroke="#32383E" stroke-width="1.5" stroke-linecap="round"/>
<path d="M14.8594 14V17.55" stroke="#32383E" stroke-width="1.5" stroke-linecap="round"/>
</g>
<path d="M4 10L5.41 18.64C5.73 20.58 6.5 22 9.36 22H15.39C18.5 22 18.96 20.64 19.32 18.76L21 10" stroke="#32383E" stroke-width="1.5" stroke-linecap="round"/>
</svg>
