<svg width="20" height="20" viewBox="0 0 20 20" fill="none" xmlns="http://www.w3.org/2000/svg">
<path d="M10.8334 18.3332H4.16675C2.50008 18.3332 1.66675 17.4998 1.66675 15.8332V9.1665C1.66675 7.49984 2.50008 6.6665 4.16675 6.6665H8.33342V15.8332C8.33342 17.4998 9.16675 18.3332 10.8334 18.3332Z" stroke="#373D43" stroke-width="1.5" stroke-miterlimit="10" stroke-linecap="round" stroke-linejoin="round"/>
<path opacity="0.4" d="M8.42507 3.3335C8.3584 3.5835 8.33341 3.8585 8.33341 4.16683V6.66683H4.16675V5.00016C4.16675 4.0835 4.91675 3.3335 5.83341 3.3335H8.42507Z" stroke="#373D43" stroke-width="1.5" stroke-miterlimit="10" stroke-linecap="round" stroke-linejoin="round"/>
<path opacity="0.4" d="M11.6667 6.6665V10.8332" stroke="#373D43" stroke-width="1.5" stroke-miterlimit="10" stroke-linecap="round" stroke-linejoin="round"/>
<path opacity="0.4" d="M15 6.6665V10.8332" stroke="#373D43" stroke-width="1.5" stroke-miterlimit="10" stroke-linecap="round" stroke-linejoin="round"/>
<path d="M14.1667 14.1665H12.5001C12.0417 14.1665 11.6667 14.5415 11.6667 14.9998V18.3332H15.0001V14.9998C15.0001 14.5415 14.6251 14.1665 14.1667 14.1665Z" stroke="#373D43" stroke-width="1.5" stroke-miterlimit="10" stroke-linecap="round" stroke-linejoin="round"/>
<path opacity="0.4" d="M5 10.8335V14.1668" stroke="#373D43" stroke-width="1.5" stroke-miterlimit="10" stroke-linecap="round" stroke-linejoin="round"/>
<path d="M8.33325 15.8332V4.1665C8.33325 2.49984 9.16659 1.6665 10.8333 1.6665H15.8333C17.4999 1.6665 18.3333 2.49984 18.3333 4.1665V15.8332C18.3333 17.4998 17.4999 18.3332 15.8333 18.3332H10.8333C9.16659 18.3332 8.33325 17.4998 8.33325 15.8332Z" stroke="#373D43" stroke-width="1.5" stroke-miterlimit="10" stroke-linecap="round" stroke-linejoin="round"/>
</svg>
