<svg width="20" height="20" viewBox="0 0 20 20" fill="none" xmlns="http://www.w3.org/2000/svg">
<path opacity="0.4" d="M9.78317 14.7915H14.7165C14.6415 14.8581 14.5665 14.9165 14.4915 14.9831L10.9332 17.6498C9.75817 18.5248 7.84151 18.5248 6.65818 17.6498L3.09151 14.9831C2.30818 14.3998 1.6665 13.1081 1.6665 12.1331V5.95813C1.6665 4.94147 2.44151 3.81647 3.39151 3.45813L7.54151 1.8998C8.22484 1.64147 9.35817 1.64147 10.0415 1.8998L14.1832 3.45813C14.9748 3.75813 15.6498 4.59147 15.8582 5.44147H9.77483C9.5915 5.44147 9.42483 5.44981 9.2665 5.44981C7.72483 5.54148 7.32483 6.0998 7.32483 7.85813V12.3831C7.33316 14.2998 7.82484 14.7915 9.78317 14.7915Z" stroke="#292D32" stroke-width="1.5" stroke-linecap="round" stroke-linejoin="round"/>
<path d="M7.3335 9.3501H18.3335" stroke="#292D32" stroke-width="1.5" stroke-miterlimit="10" stroke-linecap="round" stroke-linejoin="round"/>
<path d="M18.3335 7.84981V12.4748C18.3168 14.3248 17.8085 14.7831 15.8835 14.7831H9.7835C7.82516 14.7831 7.3335 14.2915 7.3335 12.3665V7.84147C7.3335 6.09147 7.7335 5.53312 9.27516 5.43312C9.4335 5.43312 9.60016 5.4248 9.7835 5.4248H15.8835C17.8418 5.43314 18.3335 5.91647 18.3335 7.84981Z" stroke="#292D32" stroke-width="1.5" stroke-linecap="round" stroke-linejoin="round"/>
<path d="M9.43311 12.7168H10.5414" stroke="#292D32" stroke-width="1.5" stroke-miterlimit="10" stroke-linecap="round" stroke-linejoin="round"/>
<path d="M12.2915 12.7168H15.0165" stroke="#292D32" stroke-width="1.5" stroke-miterlimit="10" stroke-linecap="round" stroke-linejoin="round"/>
</svg>
